<?xml version="1.0" encoding="UTF-8"?>
<svg width="332px" height="53px" viewBox="0 0 332 53" version="1.1" xmlns="http://www.w3.org/2000/svg" xmlns:xlink="http://www.w3.org/1999/xlink">
    <!-- Generator: Sketch 55 (78076) - https://sketchapp.com -->
    <title>BONTERO</title>
    <desc>Created with Sketch.</desc>
    <g id="Page-1" stroke="none" stroke-width="1" fill="none" fill-rule="evenodd">
        <g id="Artboard" transform="translate(-705.000000, -207.000000)" fill="#000000" fill-rule="nonzero">
            <path d="M705.39,208.37 L723.94,208.37 C733.74,208.37 739.41,214.04 739.41,221.67 C739.41,226.78 736.19,230.98 732.13,232.31 C736.61,233.36 740.95,237.49 740.95,243.93 C740.95,252.05 734.79,258 725.41,258 L705.39,258 L705.39,208.37 Z M716.17,228.25 L722.19,228.25 C726.04,228.25 728.56,226.22 728.56,222.86 C728.56,219.64 726.39,217.54 722.05,217.54 L716.17,217.54 L716.17,228.25 Z M716.17,248.97 L723.1,248.97 C727.37,248.97 729.96,246.73 729.96,243.16 C729.96,239.73 727.44,237.35 723.1,237.35 L716.17,237.35 L716.17,248.97 Z M757.19,233.15 C757.19,243.51 764.61,248.13 771.54,248.13 C778.4,248.13 785.82,243.51 785.82,233.15 C785.82,222.79 778.4,218.1 771.54,218.1 C764.61,218.1 757.19,222.79 757.19,233.15 Z M745.71,233.22 C745.71,217.47 757.54,207.32 771.54,207.32 C785.47,207.32 797.3,217.47 797.3,233.22 C797.3,248.9 785.47,259.05 771.54,259.05 C757.54,259.05 745.71,248.9 745.71,233.22 Z M848.33,258 L836.64,258 L816.2,225.38 L816.2,258 L805.21,258 L805.21,208.37 L818.65,208.37 L837.27,238.54 L837.27,208.37 L848.33,208.37 L848.33,258 Z M896.63,218.94 L881.3,218.94 L881.3,258 L870.24,258 L870.24,218.94 L854.98,218.94 L854.98,208.37 L896.63,208.37 L896.63,218.94 Z M934.85,258 L903.35,258 L903.35,208.37 L934.78,208.37 L934.78,218.8 L914.41,218.8 L914.41,228.25 L932.89,228.25 L932.89,237.98 L914.41,237.98 L914.41,247.5 L934.85,247.5 L934.85,258 Z M968.03,258 L959.14,239.52 L955.22,239.52 L955.22,258 L944.16,258 L944.16,208.37 L963.83,208.37 C973.63,208.37 979.93,215.09 979.93,223.91 C979.93,230.63 976.22,235.74 970.13,237.91 L980.21,258 L968.03,258 Z M955.22,230 L961.73,230 C966.28,230 968.73,227.48 968.73,223.98 C968.73,220.27 966.28,217.96 961.73,217.96 L955.22,217.96 L955.22,230 Z M996.38,233.15 C996.38,243.51 1003.8,248.13 1010.73,248.13 C1017.59,248.13 1025.01,243.51 1025.01,233.15 C1025.01,222.79 1017.59,218.1 1010.73,218.1 C1003.8,218.1 996.38,222.79 996.38,233.15 Z M984.9,233.22 C984.9,217.47 996.73,207.32 1010.73,207.32 C1024.66,207.32 1036.49,217.47 1036.49,233.22 C1036.49,248.9 1024.66,259.05 1010.73,259.05 C996.73,259.05 984.9,248.9 984.9,233.22 Z" id="BONTERO"></path>
        </g>
    </g>
</svg>