<svg width="223" height="89" viewBox="0 0 223 89" fill="none" xmlns="http://www.w3.org/2000/svg">
<g clip-path="url(#clip0)">
<path d="M52.6001 84.95C31.6001 84.95 14.6001 68.8 14.6001 48.87C14.6543 43.1668 16.0823 37.5607 18.763 32.5265C21.4437 27.4923 25.2983 23.1783 30.0001 19.95C25.5879 23.1347 21.9877 27.3137 19.4911 32.1487C16.9946 36.9837 15.6719 42.3387 15.6301 47.78C15.6301 67.27 32.2601 83.08 52.7801 83.08L52.6001 84.95Z" fill="#0E7703"/>
<path d="M180 84.95C201 84.95 218 68.8 218 48.87C217.965 43.1554 216.548 37.534 213.872 32.4847C211.196 27.4353 207.339 23.1076 202.63 19.87C207.053 23.0626 210.66 27.2544 213.157 32.1043C215.654 36.9542 216.971 42.3251 217 47.78C217 67.27 200.37 83.08 179.86 83.08L180 84.95Z" fill="#0E7703"/>
<path d="M25.55 72.69C25.55 72.69 20.04 64.19 26.55 57.16C26.57 57.16 32.91 65.04 25.55 72.69Z" fill="#0E7703"/>
<path d="M24.34 73.74C24.34 73.74 14 75.5 9.51001 67.15C9.51001 67.15 19.55 64.43 24.34 73.74Z" fill="#0E7703"/>
<path d="M17.9 65.1C17.9 65.1 8.9 66.63 5 59.37C5 59.37 13.74 57 17.9 65.1Z" fill="#0E7703"/>
<path d="M15.2299 57.34C15.2299 57.34 6.41994 55.04 6.22994 46.88C6.17994 46.88 15.1399 48.32 15.2299 57.34Z" fill="#0E7703"/>
<path d="M15.2899 47.01C15.2899 47.01 7.67993 44.14 8.28993 36.86C8.30993 36.86 16.1399 38.95 15.2899 47.01Z" fill="#0E7703"/>
<path d="M15.7501 38.52C15.7501 38.52 10.5901 32.47 14.9101 26.41C14.9101 26.41 20.6401 31.95 15.7501 38.52Z" fill="#0E7703"/>
<path d="M21.2699 29.77C21.2699 29.77 17.0399 24.77 20.5799 19.83C20.5799 19.83 25.2799 24.34 21.2699 29.77Z" fill="#0E7703"/>
<path d="M24.72 21.53C24.72 21.53 24.85 16.34 29.79 15.03C29.8668 16.5418 29.3967 18.0308 28.4656 19.2244C27.5346 20.418 26.205 21.2364 24.72 21.53Z" fill="#0E7703"/>
<path d="M18.4999 63.5001C18.4999 63.5001 15.9999 54.8501 23.4499 50.3101C24.3816 52.7335 24.3923 55.4144 23.48 57.8452C22.5678 60.276 20.7959 62.2879 18.4999 63.5001Z" fill="#0E7703"/>
<path d="M16.0001 52.5C16.0001 52.5 15.8901 44.5 23.4301 42.22C23.6383 44.5412 23.0012 46.8595 21.636 48.7483C20.2708 50.6372 18.2694 51.9694 16.0001 52.5Z" fill="#0E7703"/>
<path d="M15.3 42.4C15.3 42.4 17.53 35.3 24.85 35.27C24.3468 37.3896 23.1147 39.2649 21.3691 40.5682C19.6234 41.8715 17.4753 42.5199 15.3 42.4Z" fill="#0E7703"/>
<path d="M30.6201 18.42C30.6201 18.42 34.6201 13.32 40.4801 15.31C39.4345 16.8716 37.8883 18.0304 36.096 18.5957C34.3038 19.161 32.3724 19.0991 30.6201 18.42Z" fill="#0E7703"/>
<path d="M207.09 72.69C207.09 72.69 212.6 64.19 206.09 57.16C206.07 57.16 199.73 65.04 207.09 72.69Z" fill="#0E7703"/>
<path d="M208.3 73.74C208.3 73.74 218.64 75.5 223.13 67.15C223.13 67.15 213.09 64.43 208.3 73.74Z" fill="#0E7703"/>
<path d="M214.74 65.1C214.74 65.1 223.74 66.63 227.64 59.37C227.64 59.37 218.91 57 214.74 65.1Z" fill="#0E7703"/>
<path d="M217.41 57.34C217.41 57.34 226.22 55.04 226.46 46.88C226.46 46.88 217.51 48.32 217.41 57.34Z" fill="#0E7703"/>
<path d="M217.35 47.01C217.35 47.01 224.96 44.14 224.35 36.86C224.33 36.86 216.51 38.95 217.35 47.01Z" fill="#0E7703"/>
<path d="M216.9 38.52C216.9 38.52 222.05 32.47 217.73 26.41C217.73 26.41 212 31.95 216.9 38.52Z" fill="#0E7703"/>
<path d="M211.38 29.77C211.38 29.77 215.6 24.77 212.06 19.83C212.06 19.83 207.36 24.34 211.38 29.77Z" fill="#0E7703"/>
<path d="M207.92 21.53C207.92 21.53 207.79 16.34 202.85 15.03C202.773 16.5418 203.243 18.0308 204.174 19.2244C205.105 20.418 206.435 21.2364 207.92 21.53Z" fill="#0E7703"/>
<path d="M214.15 63.5001C214.15 63.5001 216.69 54.8501 209.15 50.3101C208.22 52.7391 208.216 55.4253 209.137 57.8575C210.059 60.2896 211.843 62.2979 214.15 63.5001Z" fill="#0E7703"/>
<path d="M216.61 52.5C216.61 52.5 216.71 44.5 209.17 42.22C208.962 44.5426 209.601 46.862 210.968 48.7511C212.335 50.6401 214.339 51.9715 216.61 52.5Z" fill="#0E7703"/>
<path d="M217.34 42.4C217.34 42.4 215.12 35.3 207.79 35.27C208.293 37.3896 209.525 39.2649 211.271 40.5682C213.017 41.8715 215.165 42.5199 217.34 42.4Z" fill="#0E7703"/>
<path d="M213.57 33.64C213.57 33.64 210.4 27.15 203.39 28.08C204.183 30.0404 205.63 31.6656 207.486 32.6792C209.342 33.6929 211.492 34.0324 213.57 33.64Z" fill="#0E7703"/>
<path d="M208.39 24.47C208.39 24.47 204.39 19.37 198.53 21.36C199.576 22.9216 201.122 24.0804 202.914 24.6457C204.706 25.211 206.638 25.1491 208.39 24.47Z" fill="#0E7703"/>
<path d="M202 18.42C202 18.42 198 13.32 192.14 15.31C193.185 16.8716 194.732 18.0304 196.524 18.5957C198.316 19.161 200.248 19.0991 202 18.42Z" fill="#0E7703"/>
<path d="M85.2783 23.5508H92.0049L92.4385 21.4414H93.9033V26H82.2783V24.1016C85.2939 21.7578 87.3486 19.8945 88.4424 18.5117C89.5361 17.1289 90.083 15.793 90.083 14.5039C90.083 13.4492 89.8213 12.625 89.2979 12.0312C88.7744 11.4375 88.0518 11.1406 87.1299 11.1406C86.9111 11.1406 86.6807 11.168 86.4385 11.2227C86.2041 11.2695 85.9697 11.3398 85.7354 11.4336V14.5273C85.4697 14.668 85.2119 14.7773 84.9619 14.8555C84.7119 14.9258 84.4658 14.9609 84.2236 14.9609C83.7002 14.9609 83.2822 14.8086 82.9697 14.5039C82.6572 14.1992 82.501 13.793 82.501 13.2852C82.501 12.2305 83.0283 11.3555 84.083 10.6602C85.1377 9.95703 86.4893 9.60547 88.1377 9.60547C89.7236 9.60547 90.9971 10.0352 91.958 10.8945C92.9189 11.7461 93.3994 12.8789 93.3994 14.293C93.3994 15.6445 92.8096 17.0039 91.6299 18.3711C90.458 19.7383 88.3408 21.4648 85.2783 23.5508ZM102.13 10.9531C101.192 10.9531 100.485 11.5352 100.009 12.6992C99.5322 13.8633 99.2939 15.5859 99.2939 17.8672C99.2939 20.2188 99.5283 21.9844 99.9971 23.1641C100.474 24.3359 101.185 24.9219 102.13 24.9219C103.075 24.9219 103.782 24.3398 104.251 23.1758C104.728 22.0117 104.966 20.2656 104.966 17.9375C104.966 15.6094 104.728 13.8633 104.251 12.6992C103.782 11.5352 103.075 10.9531 102.13 10.9531ZM102.106 9.60547C103.997 9.60547 105.489 10.3516 106.583 11.8438C107.677 13.3281 108.224 15.3672 108.224 17.9609C108.224 20.5547 107.677 22.5938 106.583 24.0781C105.497 25.5547 104.005 26.293 102.106 26.293C100.216 26.293 98.7314 25.5547 97.6533 24.0781C96.5752 22.5938 96.0361 20.5547 96.0361 17.9609C96.0361 15.3594 96.5752 13.3164 97.6533 11.832C98.7393 10.3477 100.224 9.60547 102.106 9.60547ZM116.825 9.65234H118.384V24.3242L118.642 24.6992L120.903 24.8047V26H112.571V24.8047L114.974 24.6523L115.255 24.2188V12.418L115.044 12.125L111.634 12.6289V11.4102L116.825 9.65234ZM128.298 18.4648C127.774 18.9336 127.396 19.4062 127.161 19.8828C126.927 20.3516 126.81 20.8711 126.81 21.4414C126.81 22.4414 127.11 23.2695 127.712 23.9258C128.313 24.5742 129.075 24.8984 129.997 24.8984C130.856 24.8984 131.552 24.6641 132.083 24.1953C132.614 23.7188 132.88 23.1055 132.88 22.3555C132.88 21.582 132.563 20.918 131.931 20.3633C131.298 19.8008 130.087 19.168 128.298 18.4648ZM132.423 17.457C133.61 17.8789 134.485 18.4297 135.048 19.1094C135.618 19.7891 135.903 20.6289 135.903 21.6289C135.903 23.0586 135.349 24.207 134.239 25.0742C133.138 25.9336 131.653 26.3633 129.786 26.3633C128.06 26.3633 126.657 25.9297 125.579 25.0625C124.509 24.1875 123.974 23.0664 123.974 21.6992C123.974 20.7695 124.247 19.9805 124.794 19.332C125.349 18.6836 126.153 18.2031 127.208 17.8906C126.372 17.5078 125.739 17 125.31 16.3672C124.88 15.7344 124.665 14.9922 124.665 14.1406C124.665 12.7578 125.173 11.6484 126.188 10.8125C127.204 9.97656 128.556 9.55859 130.243 9.55859C131.735 9.55859 132.942 9.94922 133.864 10.7305C134.794 11.5039 135.259 12.5039 135.259 13.7305C135.259 14.543 135.017 15.2656 134.532 15.8984C134.056 16.5312 133.353 17.0508 132.423 17.457ZM131.298 16.9062C131.704 16.5156 132.013 16.0742 132.224 15.582C132.435 15.082 132.54 14.5391 132.54 13.9531C132.54 13.0781 132.306 12.3672 131.837 11.8203C131.368 11.2734 130.755 11 129.997 11C129.333 11 128.782 11.2305 128.345 11.6914C127.907 12.1445 127.688 12.7227 127.688 13.4258C127.688 14.1445 127.97 14.7773 128.532 15.3242C129.095 15.8711 130.017 16.3984 131.298 16.9062Z" fill="#0E7703"/>
<path d="M84.9348 82.8V81.6282L86.3762 81.4993L86.7629 81.1243V68.3274L86.3762 67.9875L84.8411 67.8704V66.6985H96.8879V70.7297H95.2356L94.8723 68.3977L94.5676 68.093H89.927V74.0696H93.1497L93.4895 73.7532L93.7239 71.9954H95.1418V77.5969H93.7239L93.4895 75.8391L93.1497 75.5227H89.927V81.1243L90.3372 81.4993L92.0247 81.6282V82.8H84.9348ZM102.29 69.8157L100.204 75.7454H104.435L102.29 69.8157ZM101.763 66.5227H104.282L109.802 81.3821L111.22 81.6282V82.8H104.74V81.6282L106.251 81.4758L106.427 81.1711L104.986 77.093H99.7473L98.3059 81.1477L98.552 81.4524L100.064 81.6282V82.8H94.8958V81.6282L96.3372 81.4055L101.763 66.5227ZM116.458 68.0696L116.47 74.3274C116.572 74.3352 116.681 74.343 116.798 74.3508C116.923 74.3508 117.099 74.3508 117.325 74.3508C118.622 74.3508 119.579 74.0891 120.197 73.5657C120.814 73.0422 121.122 72.2336 121.122 71.1399C121.122 70.1399 120.818 69.3782 120.208 68.8547C119.599 68.3313 118.72 68.0696 117.572 68.0696H116.458ZM111.536 66.6985H118.837C120.681 66.6985 122.079 67.0461 123.032 67.7415C123.993 68.4368 124.474 69.4563 124.474 70.8C124.474 71.9016 124.126 72.8 123.431 73.4954C122.736 74.1829 121.708 74.6516 120.349 74.9016C120.943 75.0422 121.443 75.2336 121.849 75.4758C122.263 75.7102 122.603 76.0149 122.868 76.3899C123.204 76.8743 123.54 77.6711 123.876 78.7805C124.04 79.304 124.169 79.6907 124.263 79.9407C124.505 80.5735 124.825 81.0149 125.224 81.2649C125.63 81.5071 126.255 81.6282 127.099 81.6282H127.404V82.7766C126.958 82.8391 126.532 82.886 126.126 82.9172C125.728 82.9485 125.353 82.9641 125.001 82.9641C124.509 82.9641 124.044 82.9016 123.607 82.7766C123.177 82.6438 122.81 82.4602 122.505 82.2258C121.779 81.6633 121.208 80.7375 120.794 79.4485C120.74 79.2688 120.697 79.1282 120.665 79.0266C120.212 77.6594 119.724 76.7688 119.2 76.3547C118.677 75.9329 117.9 75.7219 116.868 75.7219H116.458V81.1243L116.845 81.4993L118.31 81.6282V82.8H111.536V81.6282L112.954 81.4993L113.341 81.1243V68.3274L112.954 67.9875L111.536 67.8704V66.6985ZM127.497 82.8V81.6282L129.032 81.4524L129.372 81.0188V68.304L129.079 67.9875L127.497 67.8469V66.6985H133.79V67.3665L137.529 78.3821L141.255 67.3899V66.6985H147.607V67.8469L145.978 67.9875L145.72 68.3274V81.1243L145.978 81.4993L147.607 81.6282V82.8H140.962V81.6282L142.45 81.4993L142.697 81.1243V68.2336L137.704 82.8H135.97L131.095 68.3508V81.0188L131.458 81.4524L132.947 81.6282V82.8H127.497Z" fill="#0E7703"/>
<path d="M35.6133 53.5789L35.6953 53.5906C36.1797 53.614 36.5391 53.6257 36.7734 53.6257C38.1797 53.6257 39.2031 53.3718 39.8438 52.864C40.4844 52.3484 40.8047 51.5242 40.8047 50.3914C40.8047 49.3679 40.5039 48.6062 39.9023 48.1062C39.3008 47.5984 38.3984 47.3445 37.1953 47.3445C36.8438 47.3445 36.5508 47.3484 36.3164 47.3562C36.082 47.364 35.8477 47.3757 35.6133 47.3914V53.5789ZM35.625 45.9968C35.6875 46.0046 35.7656 46.0125 35.8594 46.0203C35.9531 46.0203 36.0898 46.0203 36.2695 46.0203C37.5195 46.0203 38.4375 45.7703 39.0234 45.2703C39.6172 44.7625 39.9141 43.9734 39.9141 42.9031C39.9141 41.9656 39.6406 41.2703 39.0938 40.8171C38.5469 40.364 37.707 40.1375 36.5742 40.1375C36.3867 40.1375 36.0898 40.1531 35.6836 40.1843H35.6133L35.625 45.9968ZM30.6914 38.8484H37.8984C39.6641 38.8484 40.9922 39.1648 41.8828 39.7976C42.7734 40.4226 43.2188 41.3601 43.2188 42.6101C43.2188 43.5554 42.9297 44.3484 42.3516 44.989C41.7734 45.6218 40.9219 46.0867 39.7969 46.3835C41.1719 46.407 42.2422 46.7585 43.0078 47.4382C43.7734 48.1179 44.1562 49.0554 44.1562 50.2507C44.1562 51.7664 43.6367 52.9304 42.5977 53.7429C41.5586 54.5476 40.0625 54.95 38.1094 54.95H30.6914V53.7781L32.1094 53.6492L32.4961 53.2742V40.4773L32.1094 40.1375L30.6914 40.0203V38.8484ZM45.7617 54.95V53.7781L47.2266 53.6492L47.6133 53.2742V40.4773L47.2266 40.1375L45.7617 40.0203V38.8484H57.8672V42.6101H56.2031L55.793 40.5007L55.5352 40.1843H50.7305V45.9031H53.8594L54.1875 45.5632L54.4336 43.8406H55.8516V49.407H54.4336L54.1875 47.6726L53.8594 47.3445H50.7305V53.5789H56.332L56.6133 53.1921L57 50.6492H58.6523V54.95H45.7617ZM60.8086 54.4226V50.075H62.625L63.0117 52.9578L63.3281 53.321C63.6797 53.4304 64.0273 53.5125 64.3711 53.5671C64.7227 53.6218 65.0781 53.6492 65.4375 53.6492C66.375 53.6492 67.125 53.4421 67.6875 53.0281C68.25 52.614 68.5312 52.0632 68.5312 51.3757C68.5312 50.7664 68.332 50.2273 67.9336 49.7585C67.543 49.282 66.8867 48.8132 65.9648 48.3523C65.8164 48.2742 65.5898 48.1648 65.2852 48.0242C64.1914 47.5164 63.3711 47.032 62.8242 46.571C62.2852 46.1179 61.8711 45.6062 61.582 45.0359C61.293 44.4656 61.1484 43.8835 61.1484 43.2898C61.1484 41.9148 61.6719 40.782 62.7188 39.8914C63.7734 39.0007 65.1367 38.5554 66.8086 38.5554C67.5352 38.5554 68.2734 38.6257 69.0234 38.7664C69.7734 38.8992 70.5391 39.1023 71.3203 39.3757V43.2664H69.5859L69.1875 40.7703L68.8477 40.4304C68.6211 40.3132 68.3633 40.2273 68.0742 40.1726C67.7852 40.1179 67.457 40.0906 67.0898 40.0906C66.2383 40.0906 65.5547 40.3015 65.0391 40.7234C64.5234 41.1453 64.2656 41.696 64.2656 42.3757C64.2656 42.8757 64.4102 43.3289 64.6992 43.7351C64.9961 44.1335 65.5 44.5437 66.2109 44.9656C66.3828 45.075 66.8594 45.3054 67.6406 45.657C68.4297 46.0007 69.0938 46.3445 69.6328 46.6882C70.3281 47.1335 70.8633 47.6687 71.2383 48.2937C71.6133 48.9187 71.8008 49.5867 71.8008 50.2976C71.8008 51.7664 71.2188 52.9539 70.0547 53.8601C68.8906 54.7664 67.3516 55.2195 65.4375 55.2195C64.6562 55.2195 63.8711 55.1492 63.082 55.0085C62.293 54.8757 61.5352 54.6804 60.8086 54.4226ZM73.418 38.8484H87.2578V43.0906H85.6055L85.1953 40.5242L84.8438 40.2195H81.9609V53.2742L82.3711 53.6492L83.9297 53.7781V54.95H76.7461V53.7781L78.3164 53.6492L78.7148 53.2742V40.2195H75.8438L75.4805 40.5242L75.0703 43.0906H73.418V38.8484ZM103.617 40.0203C102.242 40.0203 101.137 40.6414 100.301 41.8835C99.4727 43.1179 99.0586 44.7781 99.0586 46.864C99.0586 48.9812 99.4727 50.6804 100.301 51.9617C101.137 53.2351 102.227 53.8718 103.57 53.8718C104.93 53.8718 106.023 53.2507 106.852 52.0085C107.688 50.7585 108.105 49.0984 108.105 47.0281C108.105 44.8875 107.695 43.1843 106.875 41.9187C106.062 40.6531 104.977 40.0203 103.617 40.0203ZM95.4844 46.8171C95.4844 45.5046 95.6914 44.325 96.1055 43.2781C96.5195 42.2312 97.1367 41.3289 97.957 40.571C98.7148 39.8757 99.5586 39.3562 100.488 39.0125C101.426 38.6609 102.453 38.4851 103.57 38.4851C104.602 38.4851 105.555 38.6414 106.43 38.9539C107.312 39.2664 108.121 39.7351 108.855 40.3601C109.777 41.157 110.48 42.1179 110.965 43.2429C111.457 44.3679 111.703 45.6062 111.703 46.9578C111.703 48.2312 111.484 49.3992 111.047 50.4617C110.617 51.5242 109.98 52.446 109.137 53.2273C108.41 53.907 107.582 54.4304 106.652 54.7976C105.723 55.157 104.75 55.3367 103.734 55.3367C101.258 55.3367 99.2617 54.5554 97.7461 52.9929C96.2383 51.4304 95.4844 49.3718 95.4844 46.8171ZM118.207 40.2195L118.219 46.4773C118.32 46.4851 118.43 46.4929 118.547 46.5007C118.672 46.5007 118.848 46.5007 119.074 46.5007C120.371 46.5007 121.328 46.239 121.945 45.7156C122.562 45.1921 122.871 44.3835 122.871 43.2898C122.871 42.2898 122.566 41.5281 121.957 41.0046C121.348 40.4812 120.469 40.2195 119.32 40.2195H118.207ZM113.285 38.8484H120.586C122.43 38.8484 123.828 39.196 124.781 39.8914C125.742 40.5867 126.223 41.6062 126.223 42.95C126.223 44.0515 125.875 44.95 125.18 45.6453C124.484 46.3328 123.457 46.8015 122.098 47.0515C122.691 47.1921 123.191 47.3835 123.598 47.6257C124.012 47.8601 124.352 48.1648 124.617 48.5398C124.953 49.0242 125.289 49.821 125.625 50.9304C125.789 51.4539 125.918 51.8406 126.012 52.0906C126.254 52.7234 126.574 53.1648 126.973 53.4148C127.379 53.657 128.004 53.7781 128.848 53.7781H129.152V54.9265C128.707 54.989 128.281 55.0359 127.875 55.0671C127.477 55.0984 127.102 55.114 126.75 55.114C126.258 55.114 125.793 55.0515 125.355 54.9265C124.926 54.7937 124.559 54.6101 124.254 54.3757C123.527 53.8132 122.957 52.8875 122.543 51.5984C122.488 51.4187 122.445 51.2781 122.414 51.1765C121.961 49.8093 121.473 48.9187 120.949 48.5046C120.426 48.0828 119.648 47.8718 118.617 47.8718H118.207V53.2742L118.594 53.6492L120.059 53.7781V54.95H113.285V53.7781L114.703 53.6492L115.09 53.2742V40.4773L114.703 40.1375L113.285 40.0203V38.8484ZM138.199 47.0281H145.207V48.2117L143.812 48.3289L143.438 48.657V54.2585C142.492 54.5867 141.574 54.8328 140.684 54.9968C139.793 55.1609 138.918 55.2429 138.059 55.2429C135.551 55.2429 133.516 54.4617 131.953 52.8992C130.391 51.3367 129.609 49.3015 129.609 46.7937C129.609 44.3093 130.406 42.321 132 40.8289C133.602 39.3289 135.723 38.5789 138.363 38.5789C139.16 38.5789 139.98 38.6453 140.824 38.7781C141.676 38.9109 142.547 39.1101 143.438 39.3757V43.4539H141.68L141.223 40.9109L140.859 40.4773C140.547 40.3445 140.227 40.2468 139.898 40.1843C139.57 40.1218 139.227 40.0906 138.867 40.0906C137.07 40.0906 135.656 40.6882 134.625 41.8835C133.602 43.071 133.09 44.7078 133.09 46.7937C133.09 48.9343 133.613 50.6101 134.66 51.821C135.715 53.0242 137.176 53.6257 139.043 53.6257C139.168 53.6257 139.344 53.6218 139.57 53.614C139.797 53.5984 140.059 53.5789 140.355 53.5554V48.657L139.98 48.3289L138.199 48.2117V47.0281ZM152.812 41.9656L150.727 47.8953H154.957L152.812 41.9656ZM152.285 38.6726H154.805L160.324 53.532L161.742 53.7781V54.95H155.262V53.7781L156.773 53.6257L156.949 53.321L155.508 49.2429H150.27L148.828 53.2976L149.074 53.6023L150.586 53.7781V54.95H145.418V53.7781L146.859 53.5554L152.285 38.6726ZM161.941 54.95V53.8015L163.359 53.6023L163.793 53.1687V40.4773L163.453 40.1375L161.941 40.0203V38.8484H167.438V39.4929L174.785 50.8953V40.6179L174.352 40.1609L172.887 40.0203V38.8484H178.359V40.0203L176.941 40.1609L176.531 40.6179V54.95H173.848L165.539 42.0593V53.1687L165.926 53.6023L167.414 53.8015V54.95H161.941ZM179.496 54.95V53.7781L181.09 53.6492L181.488 53.2742V40.4773L181.09 40.1375L179.496 40.0203V38.8484H186.68V40.0203L185.074 40.1375L184.688 40.4773V53.2742L185.074 53.6492L186.68 53.7781V54.95H179.496ZM201.715 54.3757C200.91 54.6648 200.086 54.8796 199.242 55.0203C198.406 55.1687 197.551 55.2429 196.676 55.2429C195.824 55.2429 195.023 55.1492 194.273 54.9617C193.523 54.782 192.852 54.5125 192.258 54.1531C191.008 53.4109 190.031 52.4031 189.328 51.1296C188.625 49.8484 188.273 48.4421 188.273 46.9109C188.273 45.6843 188.484 44.5476 188.906 43.5007C189.336 42.4539 189.957 41.5437 190.77 40.7703C191.527 40.0359 192.41 39.4851 193.418 39.1179C194.434 38.7429 195.566 38.5554 196.816 38.5554C197.621 38.5554 198.43 38.6296 199.242 38.7781C200.062 38.9265 200.887 39.1492 201.715 39.446V43.4539H199.957L199.477 40.8875L199.148 40.4773C198.82 40.3601 198.496 40.2703 198.176 40.2078C197.863 40.1453 197.555 40.114 197.25 40.114C195.578 40.114 194.25 40.7234 193.266 41.9421C192.289 43.1531 191.801 44.8015 191.801 46.8875C191.801 49.0281 192.312 50.7039 193.336 51.9148C194.359 53.1257 195.77 53.7312 197.566 53.7312C197.762 53.7312 197.98 53.7117 198.223 53.6726C198.473 53.6335 198.738 53.5789 199.02 53.5085L199.383 53.1453L199.957 50.2507H201.715V54.3757Z" fill="#0E7703"/>
</g>
<defs>
<clipPath id="clip0">
<rect width="222.64" height="88.71" fill="white"/>
</clipPath>
</defs>
</svg>
