<svg width="30" height="32" viewBox="0 0 30 32" fill="none" xmlns="http://www.w3.org/2000/svg">
<path d="M18 4H3.25C2.14543 4 1.25 4.89543 1.25 6V19.3333C1.25 20.4379 2.14543 21.3333 3.25 21.3333H18C19.1046 21.3333 20 20.4379 20 19.3333V6C20 4.89543 19.1046 4 18 4Z" stroke="#EF0F0F" stroke-width="2" stroke-linecap="round" stroke-linejoin="round"/>
<path d="M20 12.6667C20 11.5621 20.8954 10.6667 22 10.6667H24.1335C24.6864 10.6667 25.2145 10.8955 25.5926 11.2988L28.2091 14.0897C28.5566 14.4604 28.75 14.9495 28.75 15.4576V19.3334C28.75 20.4379 27.8546 21.3334 26.75 21.3334H22C20.8954 21.3334 20 20.4379 20 19.3334V12.6667Z" stroke="#EF0F0F" stroke-width="2" stroke-linecap="round" stroke-linejoin="round"/>
<path d="M6.875 27.9999C8.60089 27.9999 10 26.5075 10 24.6666C10 22.8256 8.60089 21.3333 6.875 21.3333C5.14911 21.3333 3.75 22.8256 3.75 24.6666C3.75 26.5075 5.14911 27.9999 6.875 27.9999Z" stroke="#EF0F0F" stroke-width="2" stroke-linecap="round" stroke-linejoin="round"/>
<path d="M23.125 27.9999C24.8509 27.9999 26.25 26.5075 26.25 24.6666C26.25 22.8256 24.8509 21.3333 23.125 21.3333C21.3991 21.3333 20 22.8256 20 24.6666C20 26.5075 21.3991 27.9999 23.125 27.9999Z" stroke="#EF0F0F" stroke-width="2" stroke-linecap="round" stroke-linejoin="round"/>
</svg>
