<svg width="39" height="40" viewBox="0 0 39 40" fill="none" xmlns="http://www.w3.org/2000/svg">
<path d="M27.3284 22.9178H31.2752C31.6645 22.9178 31.9801 22.6021 31.9801 22.2129C31.9801 21.8237 31.6645 21.5081 31.2752 21.5081H28.3314C27.7772 21.5081 27.3279 21.0591 27.3269 20.505C27.3267 20.3622 27.3264 20.2188 27.3262 20.0861C27.3254 19.7469 27.6049 19.4659 27.9441 19.4659C29.8586 19.4659 31.4162 17.9083 31.4162 15.9937V13.3674C31.4162 12.9782 31.1006 12.6626 30.7114 12.6626C30.3222 12.6626 30.0066 12.9782 30.0066 13.3674V15.9938C30.0066 17.1311 29.0814 18.0564 27.9441 18.0564C27.4674 18.0564 27.0603 17.7266 26.8954 17.2794C26.7209 16.806 26.4969 16.3563 26.2298 15.9366C25.3814 14.6039 25.3531 12.2029 25.7628 10.6772C25.8644 10.2987 25.9186 9.90105 25.9186 9.49091C25.9186 9.1017 25.603 8.78607 25.2138 8.78607C24.8246 8.78607 24.5089 9.1017 24.5089 9.49091C24.5089 11.2398 23.0861 12.6626 21.3372 12.6626H19.2228C17.4739 12.6626 16.0511 11.2398 16.0511 9.49091C16.0511 9.1017 15.7355 8.78607 15.3462 8.78607C14.957 8.78607 14.6414 9.1017 14.6414 9.49091C14.6414 9.90093 14.6956 10.2985 14.7972 10.6768C15.2068 12.2027 15.1784 14.604 14.3301 15.9368C14.063 16.3564 13.839 16.8061 13.6645 17.2795C13.4997 17.7266 13.0926 18.0563 12.6161 18.0563C11.4788 18.0563 10.5536 17.131 10.5536 15.9937V13.3674C10.5536 12.9782 10.238 12.6626 9.84875 12.6626C9.45954 12.6626 9.14392 12.9782 9.14392 13.3674V15.9938C9.14392 17.9084 10.7016 19.466 12.6161 19.466C12.9552 19.466 13.2347 19.7471 13.234 20.0862C13.2337 20.219 13.2334 20.3624 13.2332 20.5053C13.2323 21.0593 12.7831 21.5081 12.2291 21.5081H9.28491C8.8957 21.5081 8.58008 21.8238 8.58008 22.2129C8.58008 22.6021 8.8957 22.9178 9.28491 22.9178H12.2099C12.7743 22.9178 13.2319 23.3753 13.2319 23.9397C13.2319 24.0217 13.2333 24.1034 13.2361 24.1848C13.2485 24.5426 12.9741 24.8578 12.6161 24.8578C10.7016 24.8578 9.14392 26.4155 9.14392 28.33V30.9564C9.14392 31.3456 9.45954 31.6612 9.84875 31.6612C10.238 31.6612 10.5536 31.3456 10.5536 30.9564V28.33C10.5536 27.1927 11.4788 26.2675 12.6161 26.2675C13.2219 26.2675 13.7493 26.6575 14.03 27.1944C15.2076 29.447 17.5671 30.9879 20.2802 30.9879C22.9932 30.9879 25.3527 29.447 26.5303 27.1944C26.811 26.6575 27.3384 26.2675 27.9443 26.2675C29.0815 26.2675 30.0068 27.1927 30.0068 28.33V30.9564C30.0068 31.3456 30.3224 31.6612 30.7116 31.6612C31.1008 31.6612 31.4164 31.3456 31.4164 30.9564V28.33C31.4164 26.4155 29.8588 24.8578 27.9443 24.8578C27.5862 24.8578 27.3118 24.5426 27.3242 24.1848C27.327 24.1034 27.3285 24.0217 27.3285 23.9397V22.9178C27.3285 22.9178 27.3284 22.9178 27.3284 22.9178ZM19.5752 27.2663C19.5752 28.4696 18.4823 29.4168 17.4433 28.8097C15.7691 27.8315 14.6417 26.0155 14.6415 23.9404C14.6415 23.94 14.6415 23.9401 14.6415 23.9397C14.6415 23.9322 14.6423 22.5932 14.6437 21.3821C14.6449 20.3107 15.4927 19.466 16.5641 19.466H17.5752C18.6798 19.466 19.5752 20.3614 19.5752 21.466V27.2663ZM17.5972 18.0563C16.2517 18.0563 15.3219 16.7131 16.2664 15.7548C17.2894 14.7167 18.7108 14.0722 20.2801 14.0722C21.8493 14.0722 23.2707 14.7167 24.2938 15.7548C25.2383 16.7131 24.3085 18.0563 22.963 18.0563H17.5972ZM23.1168 28.8097C22.0779 29.4168 20.9849 28.4696 20.9849 27.2663V21.466C20.9849 20.3614 21.8803 19.466 22.9849 19.466H23.9972C25.0681 19.466 25.9153 20.3101 25.9165 21.381C25.9178 22.5924 25.9186 23.9322 25.9187 23.9397C25.9187 23.9402 25.9187 23.94 25.9187 23.9404C25.9184 26.0155 24.791 27.8315 23.1168 28.8097Z" fill="#C71394"/>
<path d="M19.5 36.736C28.4746 36.736 35.75 29.4606 35.75 20.486C35.75 11.5114 28.4746 4.23602 19.5 4.23602C10.5254 4.23602 3.25 11.5114 3.25 20.486C3.25 29.4606 10.5254 36.736 19.5 36.736Z" stroke="black" stroke-width="2" stroke-linecap="round" stroke-linejoin="round"/>
<path d="M8.01123 8.99719L30.9887 31.9747" stroke="black" stroke-width="2" stroke-linecap="round" stroke-linejoin="round"/>
</svg>
