<svg width="27" height="32" viewBox="0 0 27 32" fill="none" xmlns="http://www.w3.org/2000/svg">
<path d="M12.0823 2.40367C12.8622 1.62725 14.1228 1.62669 14.9033 2.40243L22.3359 9.78941C24.0849 11.5265 25.2762 13.7401 25.7592 16.1502C26.2422 18.5603 25.9951 21.0586 25.0493 23.3291C24.1034 25.5996 22.5013 27.5403 20.4455 28.9058C18.3897 30.2712 15.9726 31 13.5 31C11.0274 31 8.61031 30.2712 6.55452 28.9058C4.49873 27.5403 2.89658 25.5996 1.95073 23.3291C1.00487 21.0586 0.75781 18.5603 1.24079 16.1502C1.72377 13.7401 2.91509 11.5265 4.66407 9.78941L12.0823 2.40367Z" stroke="#10A3F5" stroke-width="2" stroke-linecap="round" stroke-linejoin="round"/>
</svg>
