<svg width="328" height="47" viewBox="0 0 328 47" fill="none" xmlns="http://www.w3.org/2000/svg">
<line x1="1" y1="11" x2="327" y2="11" stroke="#D8D8D8" stroke-width="2"/>
<circle cx="10" cy="11" r="10" fill="#F57D3F"/>
<circle cx="159" cy="12" r="10" fill="#D8D8D8"/>
<circle cx="318" cy="10" r="10" fill="#D8D8D8"/>
<path d="M284.637 30.23C284.357 29.866 284.002 29.586 283.573 29.39C283.144 29.194 282.7 29.096 282.243 29.096C281.683 29.096 281.174 29.2033 280.717 29.418C280.269 29.6233 279.882 29.908 279.555 30.272C279.238 30.636 278.99 31.0653 278.813 31.56C278.636 32.0453 278.547 32.568 278.547 33.128C278.547 33.6507 278.631 34.1453 278.799 34.612C278.967 35.0787 279.21 35.4893 279.527 35.844C279.844 36.1987 280.232 36.4787 280.689 36.684C281.146 36.8893 281.664 36.992 282.243 36.992C282.812 36.992 283.312 36.8753 283.741 36.642C284.17 36.4087 284.534 36.082 284.833 35.662L285.967 36.516C285.892 36.6187 285.762 36.768 285.575 36.964C285.388 37.1507 285.141 37.342 284.833 37.538C284.525 37.7247 284.152 37.888 283.713 38.028C283.284 38.1773 282.784 38.252 282.215 38.252C281.431 38.252 280.722 38.1027 280.087 37.804C279.462 37.5053 278.925 37.1133 278.477 36.628C278.038 36.1427 277.702 35.5967 277.469 34.99C277.236 34.374 277.119 33.7533 277.119 33.128C277.119 32.3627 277.245 31.658 277.497 31.014C277.749 30.3607 278.099 29.8007 278.547 29.334C279.004 28.858 279.55 28.4893 280.185 28.228C280.82 27.9667 281.52 27.836 282.285 27.836C282.938 27.836 283.578 27.962 284.203 28.214C284.838 28.466 285.356 28.8533 285.757 29.376L284.637 30.23ZM288.292 34.682C288.292 35.018 288.344 35.3307 288.446 35.62C288.549 35.9 288.694 36.1427 288.88 36.348C289.067 36.544 289.296 36.7027 289.566 36.824C289.837 36.936 290.14 36.992 290.476 36.992C290.812 36.992 291.116 36.936 291.386 36.824C291.657 36.7027 291.886 36.544 292.072 36.348C292.259 36.1427 292.404 35.9 292.506 35.62C292.609 35.3307 292.66 35.018 292.66 34.682C292.66 34.346 292.609 34.038 292.506 33.758C292.404 33.4687 292.259 33.226 292.072 33.03C291.886 32.8247 291.657 32.666 291.386 32.554C291.116 32.4327 290.812 32.372 290.476 32.372C290.14 32.372 289.837 32.4327 289.566 32.554C289.296 32.666 289.067 32.8247 288.88 33.03C288.694 33.226 288.549 33.4687 288.446 33.758C288.344 34.038 288.292 34.346 288.292 34.682ZM286.948 34.682C286.948 34.1967 287.037 33.744 287.214 33.324C287.401 32.904 287.653 32.5353 287.97 32.218C288.288 31.9007 288.661 31.6533 289.09 31.476C289.52 31.2893 289.982 31.196 290.476 31.196C290.971 31.196 291.433 31.2893 291.862 31.476C292.292 31.6533 292.665 31.9007 292.982 32.218C293.3 32.5353 293.547 32.904 293.724 33.324C293.911 33.744 294.004 34.1967 294.004 34.682C294.004 35.1673 293.911 35.6247 293.724 36.054C293.547 36.474 293.3 36.8427 292.982 37.16C292.665 37.468 292.292 37.7153 291.862 37.902C291.433 38.0793 290.971 38.168 290.476 38.168C289.982 38.168 289.52 38.0793 289.09 37.902C288.661 37.7153 288.288 37.468 287.97 37.16C287.653 36.8427 287.401 36.474 287.214 36.054C287.037 35.6247 286.948 35.1673 286.948 34.682ZM295.583 31.364H296.843V32.386H296.871C297.03 32.0313 297.305 31.7467 297.697 31.532C298.089 31.308 298.542 31.196 299.055 31.196C299.372 31.196 299.676 31.2473 299.965 31.35C300.264 31.4433 300.52 31.5927 300.735 31.798C300.959 32.0033 301.136 32.2693 301.267 32.596C301.398 32.9133 301.463 33.2913 301.463 33.73V38H300.203V34.08C300.203 33.772 300.161 33.5107 300.077 33.296C299.993 33.072 299.881 32.8947 299.741 32.764C299.601 32.624 299.438 32.526 299.251 32.47C299.074 32.4047 298.887 32.372 298.691 32.372C298.43 32.372 298.187 32.414 297.963 32.498C297.739 32.582 297.543 32.7173 297.375 32.904C297.207 33.0813 297.076 33.31 296.983 33.59C296.89 33.87 296.843 34.2013 296.843 34.584V38H295.583V31.364ZM303.852 32.456H302.424V31.364H303.852V29.88C303.852 28.9933 304.02 28.3353 304.356 27.906C304.701 27.4673 305.289 27.248 306.12 27.248C306.26 27.248 306.405 27.2527 306.554 27.262C306.713 27.2713 306.881 27.2993 307.058 27.346L306.918 28.466C306.797 28.4193 306.68 28.3867 306.568 28.368C306.456 28.3493 306.335 28.34 306.204 28.34C305.971 28.34 305.784 28.3773 305.644 28.452C305.504 28.5173 305.392 28.6153 305.308 28.746C305.233 28.8767 305.182 29.0353 305.154 29.222C305.135 29.3993 305.126 29.6047 305.126 29.838V31.364H306.624V32.456H305.112V38H303.852V32.456ZM308.122 31.364H309.382V38H308.122V31.364ZM307.828 28.984C307.828 28.732 307.917 28.5173 308.094 28.34C308.281 28.1533 308.5 28.06 308.752 28.06C309.004 28.06 309.219 28.1533 309.396 28.34C309.583 28.5173 309.676 28.732 309.676 28.984C309.676 29.236 309.583 29.4553 309.396 29.642C309.219 29.8193 309.004 29.908 308.752 29.908C308.5 29.908 308.281 29.8193 308.094 29.642C307.917 29.4553 307.828 29.236 307.828 28.984ZM311.388 31.364H312.648V32.386H312.676C312.76 32.2087 312.872 32.05 313.012 31.91C313.152 31.7607 313.306 31.6347 313.474 31.532C313.651 31.4293 313.842 31.35 314.048 31.294C314.253 31.2287 314.458 31.196 314.664 31.196C314.869 31.196 315.056 31.224 315.224 31.28L315.168 32.638C315.065 32.61 314.962 32.5867 314.86 32.568C314.757 32.5493 314.654 32.54 314.552 32.54C313.936 32.54 313.464 32.7127 313.138 33.058C312.811 33.4033 312.648 33.94 312.648 34.668V38H311.388V31.364ZM316.569 31.364H317.745V32.4H317.773C317.801 32.3067 317.871 32.19 317.983 32.05C318.105 31.91 318.254 31.7793 318.431 31.658C318.618 31.5273 318.833 31.42 319.075 31.336C319.327 31.2427 319.603 31.196 319.901 31.196C320.396 31.196 320.811 31.2987 321.147 31.504C321.483 31.7093 321.759 32.0173 321.973 32.428C322.188 32.0173 322.491 31.7093 322.883 31.504C323.275 31.2987 323.672 31.196 324.073 31.196C324.587 31.196 325.007 31.28 325.333 31.448C325.66 31.616 325.917 31.84 326.103 32.12C326.29 32.3907 326.416 32.7033 326.481 33.058C326.556 33.4033 326.593 33.7627 326.593 34.136V38H325.333V34.304C325.333 34.052 325.315 33.8093 325.277 33.576C325.249 33.3427 325.184 33.1373 325.081 32.96C324.979 32.7827 324.834 32.6427 324.647 32.54C324.461 32.428 324.213 32.372 323.905 32.372C323.299 32.372 322.865 32.5587 322.603 32.932C322.342 33.3053 322.211 33.786 322.211 34.374V38H320.951V34.528C320.951 34.2107 320.933 33.9213 320.895 33.66C320.867 33.3987 320.802 33.1747 320.699 32.988C320.606 32.792 320.466 32.6427 320.279 32.54C320.102 32.428 319.859 32.372 319.551 32.372C319.327 32.372 319.108 32.4187 318.893 32.512C318.688 32.596 318.506 32.7267 318.347 32.904C318.189 33.0813 318.063 33.31 317.969 33.59C317.876 33.8607 317.829 34.1827 317.829 34.556V38H316.569V31.364Z" fill="#D8D8D8"/>
<path d="M8.32444 31.23C8.04444 30.866 7.68977 30.586 7.26044 30.39C6.8311 30.194 6.38777 30.096 5.93044 30.096C5.37044 30.096 4.86177 30.2033 4.40444 30.418C3.95644 30.6233 3.5691 30.908 3.24244 31.272C2.9251 31.636 2.67777 32.0653 2.50044 32.56C2.3231 33.0453 2.23444 33.568 2.23444 34.128C2.23444 34.6507 2.31844 35.1453 2.48644 35.612C2.65444 36.0787 2.8971 36.4893 3.21444 36.844C3.53177 37.1987 3.9191 37.4787 4.37644 37.684C4.83377 37.8893 5.35177 37.992 5.93044 37.992C6.49977 37.992 6.9991 37.8753 7.42844 37.642C7.85777 37.4087 8.22177 37.082 8.52044 36.662L9.65444 37.516C9.57977 37.6187 9.4491 37.768 9.26244 37.964C9.07577 38.1507 8.82844 38.342 8.52044 38.538C8.21244 38.7247 7.8391 38.888 7.40044 39.028C6.9711 39.1773 6.47177 39.252 5.90244 39.252C5.11844 39.252 4.4091 39.1027 3.77444 38.804C3.1491 38.5053 2.61244 38.1133 2.16444 37.628C1.72577 37.1427 1.38977 36.5967 1.15644 35.99C0.923104 35.374 0.806438 34.7533 0.806438 34.128C0.806438 33.3627 0.932438 32.658 1.18444 32.014C1.43644 31.3607 1.78644 30.8007 2.23444 30.334C2.69177 29.858 3.23777 29.4893 3.87244 29.228C4.5071 28.9667 5.2071 28.836 5.97244 28.836C6.62577 28.836 7.2651 28.962 7.89044 29.214C8.5251 29.466 9.0431 29.8533 9.44444 30.376L8.32444 31.23ZM10.9579 28.416H12.2179V33.386H12.2459C12.4045 33.0313 12.6799 32.7467 13.0719 32.532C13.4639 32.308 13.9165 32.196 14.4299 32.196C14.7472 32.196 15.0505 32.2473 15.3399 32.35C15.6385 32.4433 15.8952 32.5927 16.1099 32.798C16.3339 33.0033 16.5112 33.2693 16.6419 33.596C16.7725 33.9133 16.8379 34.2913 16.8379 34.73V39H15.5779V35.08C15.5779 34.772 15.5359 34.5107 15.4519 34.296C15.3679 34.072 15.2559 33.8947 15.1159 33.764C14.9759 33.624 14.8125 33.526 14.6259 33.47C14.4485 33.4047 14.2619 33.372 14.0659 33.372C13.8045 33.372 13.5619 33.414 13.3379 33.498C13.1139 33.582 12.9179 33.7173 12.7499 33.904C12.5819 34.0813 12.4512 34.31 12.3579 34.59C12.2645 34.87 12.2179 35.2013 12.2179 35.584V39H10.9579V28.416ZM19.6892 36.144C19.6892 36.4333 19.7498 36.6993 19.8712 36.942C20.0018 37.1753 20.1698 37.376 20.3752 37.544C20.5805 37.712 20.8185 37.8427 21.0892 37.936C21.3598 38.0293 21.6398 38.076 21.9292 38.076C22.3212 38.076 22.6618 37.9873 22.9512 37.81C23.2405 37.6233 23.5065 37.3807 23.7492 37.082L24.7012 37.81C24.0012 38.7153 23.0212 39.168 21.7612 39.168C21.2385 39.168 20.7625 39.0793 20.3332 38.902C19.9132 38.7247 19.5538 38.482 19.2552 38.174C18.9658 37.8567 18.7418 37.488 18.5832 37.068C18.4245 36.6387 18.3452 36.1767 18.3452 35.682C18.3452 35.1873 18.4292 34.73 18.5972 34.31C18.7745 33.8807 19.0125 33.512 19.3112 33.204C19.6192 32.8867 19.9832 32.6393 20.4032 32.462C20.8232 32.2847 21.2805 32.196 21.7752 32.196C22.3632 32.196 22.8578 32.2987 23.2592 32.504C23.6698 32.7093 24.0058 32.98 24.2672 33.316C24.5285 33.6427 24.7152 34.016 24.8272 34.436C24.9485 34.8467 25.0092 35.2667 25.0092 35.696V36.144H19.6892ZM23.6652 35.136C23.6558 34.856 23.6092 34.5993 23.5252 34.366C23.4505 34.1327 23.3338 33.932 23.1752 33.764C23.0165 33.5867 22.8158 33.4513 22.5732 33.358C22.3398 33.2553 22.0645 33.204 21.7472 33.204C21.4392 33.204 21.1545 33.2647 20.8932 33.386C20.6412 33.498 20.4265 33.6473 20.2492 33.834C20.0718 34.0207 19.9318 34.2307 19.8292 34.464C19.7358 34.688 19.6892 34.912 19.6892 35.136H23.6652ZM31.2625 34.128C31.0291 33.8853 30.7818 33.7033 30.5205 33.582C30.2685 33.4513 29.9651 33.386 29.6105 33.386C29.2651 33.386 28.9618 33.4513 28.7005 33.582C28.4485 33.7033 28.2338 33.876 28.0565 34.1C27.8885 34.3147 27.7578 34.5667 27.6645 34.856C27.5805 35.136 27.5385 35.43 27.5385 35.738C27.5385 36.046 27.5898 36.34 27.6925 36.62C27.7951 36.8907 27.9398 37.1287 28.1265 37.334C28.3131 37.5393 28.5371 37.7027 28.7985 37.824C29.0598 37.936 29.3538 37.992 29.6805 37.992C30.0351 37.992 30.3385 37.9313 30.5905 37.81C30.8425 37.6793 31.0758 37.4927 31.2905 37.25L32.1865 38.146C31.8598 38.51 31.4771 38.7713 31.0385 38.93C30.6091 39.0887 30.1518 39.168 29.6665 39.168C29.1531 39.168 28.6818 39.084 28.2525 38.916C27.8325 38.748 27.4685 38.5147 27.1605 38.216C26.8525 37.908 26.6145 37.544 26.4465 37.124C26.2785 36.6947 26.1945 36.2233 26.1945 35.71C26.1945 35.1967 26.2785 34.7253 26.4465 34.296C26.6145 33.8667 26.8478 33.498 27.1465 33.19C27.4545 32.882 27.8185 32.644 28.2385 32.476C28.6678 32.2987 29.1438 32.21 29.6665 32.21C30.1518 32.21 30.6138 32.2987 31.0525 32.476C31.5005 32.644 31.8878 32.9053 32.2145 33.26L31.2625 34.128ZM33.2704 28.416H34.5304V35.248L37.3864 32.378H39.1364L36.0424 35.388L39.4024 39H37.6104L34.5304 35.556V39H33.2704V28.416ZM41.5521 35.682C41.5521 36.018 41.6035 36.3307 41.7061 36.62C41.8088 36.9 41.9535 37.1427 42.1401 37.348C42.3268 37.544 42.5555 37.7027 42.8261 37.824C43.0968 37.936 43.4001 37.992 43.7361 37.992C44.0721 37.992 44.3755 37.936 44.6461 37.824C44.9168 37.7027 45.1455 37.544 45.3321 37.348C45.5188 37.1427 45.6635 36.9 45.7661 36.62C45.8688 36.3307 45.9201 36.018 45.9201 35.682C45.9201 35.346 45.8688 35.038 45.7661 34.758C45.6635 34.4687 45.5188 34.226 45.3321 34.03C45.1455 33.8247 44.9168 33.666 44.6461 33.554C44.3755 33.4327 44.0721 33.372 43.7361 33.372C43.4001 33.372 43.0968 33.4327 42.8261 33.554C42.5555 33.666 42.3268 33.8247 42.1401 34.03C41.9535 34.226 41.8088 34.4687 41.7061 34.758C41.6035 35.038 41.5521 35.346 41.5521 35.682ZM40.2081 35.682C40.2081 35.1967 40.2968 34.744 40.4741 34.324C40.6608 33.904 40.9128 33.5353 41.2301 33.218C41.5475 32.9007 41.9208 32.6533 42.3501 32.476C42.7795 32.2893 43.2415 32.196 43.7361 32.196C44.2308 32.196 44.6928 32.2893 45.1221 32.476C45.5515 32.6533 45.9248 32.9007 46.2421 33.218C46.5595 33.5353 46.8068 33.904 46.9841 34.324C47.1708 34.744 47.2641 35.1967 47.2641 35.682C47.2641 36.1673 47.1708 36.6247 46.9841 37.054C46.8068 37.474 46.5595 37.8427 46.2421 38.16C45.9248 38.468 45.5515 38.7153 45.1221 38.902C44.6928 39.0793 44.2308 39.168 43.7361 39.168C43.2415 39.168 42.7795 39.0793 42.3501 38.902C41.9208 38.7153 41.5475 38.468 41.2301 38.16C40.9128 37.8427 40.6608 37.474 40.4741 37.054C40.2968 36.6247 40.2081 36.1673 40.2081 35.682ZM54.7226 39H53.4626V37.978H53.4346C53.276 38.3327 53.0006 38.622 52.6086 38.846C52.2166 39.0607 51.764 39.168 51.2506 39.168C50.924 39.168 50.616 39.1167 50.3266 39.014C50.0373 38.9207 49.7806 38.7713 49.5566 38.566C49.342 38.3607 49.1693 38.0993 49.0386 37.782C48.908 37.4553 48.8426 37.0727 48.8426 36.634V32.364H50.1026V36.284C50.1026 36.592 50.1446 36.858 50.2286 37.082C50.3126 37.2967 50.4246 37.474 50.5646 37.614C50.7046 37.7447 50.8633 37.8427 51.0406 37.908C51.2273 37.964 51.4186 37.992 51.6146 37.992C51.876 37.992 52.1186 37.95 52.3426 37.866C52.5666 37.782 52.7626 37.6513 52.9306 37.474C53.0986 37.2873 53.2293 37.054 53.3226 36.774C53.416 36.494 53.4626 36.1627 53.4626 35.78V32.364H54.7226V39ZM60.1779 33.456H58.3719V36.466C58.3719 36.6527 58.3766 36.8393 58.3859 37.026C58.3953 37.2033 58.4279 37.3667 58.4839 37.516C58.5493 37.656 58.6426 37.7727 58.7639 37.866C58.8946 37.95 59.0813 37.992 59.3239 37.992C59.4733 37.992 59.6273 37.978 59.7859 37.95C59.9446 37.922 60.0893 37.8707 60.2199 37.796V38.944C60.0706 39.028 59.8746 39.084 59.6319 39.112C59.3986 39.1493 59.2166 39.168 59.0859 39.168C58.6006 39.168 58.2226 39.1027 57.9519 38.972C57.6906 38.832 57.4946 38.6547 57.3639 38.44C57.2426 38.2253 57.1679 37.9873 57.1399 37.726C57.1213 37.4553 57.1119 37.1847 57.1119 36.914V33.456H55.6559V32.364H57.1119V30.502H58.3719V32.364H60.1779V33.456Z" fill="black"/>
<path d="M132.664 29.088H136.15C136.784 29.088 137.307 29.1767 137.718 29.354C138.128 29.522 138.45 29.7413 138.684 30.012C138.926 30.2733 139.094 30.572 139.188 30.908C139.281 31.2347 139.328 31.552 139.328 31.86C139.328 32.168 139.281 32.49 139.188 32.826C139.094 33.1527 138.926 33.4513 138.684 33.722C138.45 33.9833 138.128 34.2027 137.718 34.38C137.307 34.548 136.784 34.632 136.15 34.632H134.008V39H132.664V29.088ZM134.008 33.456H135.772C136.033 33.456 136.29 33.4373 136.542 33.4C136.803 33.3533 137.032 33.274 137.228 33.162C137.433 33.05 137.596 32.8913 137.718 32.686C137.839 32.4713 137.9 32.196 137.9 31.86C137.9 31.524 137.839 31.2533 137.718 31.048C137.596 30.8333 137.433 30.67 137.228 30.558C137.032 30.446 136.803 30.3713 136.542 30.334C136.29 30.2873 136.033 30.264 135.772 30.264H134.008V33.456ZM140.668 33.176C141.023 32.8493 141.434 32.6067 141.9 32.448C142.367 32.28 142.834 32.196 143.3 32.196C143.786 32.196 144.201 32.2567 144.546 32.378C144.901 32.4993 145.19 32.6627 145.414 32.868C145.638 33.0733 145.802 33.3113 145.904 33.582C146.016 33.8433 146.072 34.1187 146.072 34.408V37.796C146.072 38.0293 146.077 38.244 146.086 38.44C146.096 38.636 146.11 38.8227 146.128 39H145.008C144.98 38.664 144.966 38.328 144.966 37.992H144.938C144.658 38.4213 144.327 38.7247 143.944 38.902C143.562 39.0793 143.118 39.168 142.614 39.168C142.306 39.168 142.012 39.126 141.732 39.042C141.452 38.958 141.205 38.832 140.99 38.664C140.785 38.496 140.622 38.2907 140.5 38.048C140.379 37.796 140.318 37.5067 140.318 37.18C140.318 36.7507 140.412 36.3913 140.598 36.102C140.794 35.8127 141.056 35.5793 141.382 35.402C141.718 35.2153 142.106 35.0847 142.544 35.01C142.992 34.926 143.468 34.884 143.972 34.884H144.896V34.604C144.896 34.436 144.864 34.268 144.798 34.1C144.733 33.932 144.635 33.7827 144.504 33.652C144.374 33.512 144.21 33.4047 144.014 33.33C143.818 33.246 143.585 33.204 143.314 33.204C143.072 33.204 142.857 33.2273 142.67 33.274C142.493 33.3207 142.33 33.3813 142.18 33.456C142.031 33.5213 141.896 33.6007 141.774 33.694C141.653 33.7873 141.536 33.876 141.424 33.96L140.668 33.176ZM144.224 35.808C143.926 35.808 143.618 35.8267 143.3 35.864C142.992 35.892 142.708 35.9527 142.446 36.046C142.194 36.1393 141.984 36.27 141.816 36.438C141.658 36.606 141.578 36.8207 141.578 37.082C141.578 37.4647 141.704 37.74 141.956 37.908C142.218 38.076 142.568 38.16 143.006 38.16C143.352 38.16 143.646 38.104 143.888 37.992C144.131 37.8707 144.327 37.7167 144.476 37.53C144.626 37.3433 144.733 37.138 144.798 36.914C144.864 36.6807 144.896 36.452 144.896 36.228V35.808H144.224ZM147.102 32.364H148.558L150.532 37.544H150.56L152.436 32.364H153.794L150.644 40.428C150.532 40.7173 150.416 40.9787 150.294 41.212C150.173 41.4547 150.028 41.66 149.86 41.828C149.692 41.996 149.487 42.1267 149.244 42.22C149.011 42.3133 148.722 42.36 148.376 42.36C148.19 42.36 147.998 42.346 147.802 42.318C147.616 42.2993 147.434 42.2527 147.256 42.178L147.41 41.03C147.662 41.1327 147.914 41.184 148.166 41.184C148.362 41.184 148.526 41.156 148.656 41.1C148.796 41.0533 148.913 40.9787 149.006 40.876C149.109 40.7827 149.193 40.6707 149.258 40.54C149.324 40.4093 149.389 40.26 149.454 40.092L149.86 39.042L147.102 32.364ZM154.9 32.364H156.076V33.4H156.104C156.132 33.3067 156.202 33.19 156.314 33.05C156.436 32.91 156.585 32.7793 156.762 32.658C156.949 32.5273 157.164 32.42 157.406 32.336C157.658 32.2427 157.934 32.196 158.232 32.196C158.727 32.196 159.142 32.2987 159.478 32.504C159.814 32.7093 160.09 33.0173 160.304 33.428C160.519 33.0173 160.822 32.7093 161.214 32.504C161.606 32.2987 162.003 32.196 162.404 32.196C162.918 32.196 163.338 32.28 163.664 32.448C163.991 32.616 164.248 32.84 164.434 33.12C164.621 33.3907 164.747 33.7033 164.812 34.058C164.887 34.4033 164.924 34.7627 164.924 35.136V39H163.664V35.304C163.664 35.052 163.646 34.8093 163.608 34.576C163.58 34.3427 163.515 34.1373 163.412 33.96C163.31 33.7827 163.165 33.6427 162.978 33.54C162.792 33.428 162.544 33.372 162.236 33.372C161.63 33.372 161.196 33.5587 160.934 33.932C160.673 34.3053 160.542 34.786 160.542 35.374V39H159.282V35.528C159.282 35.2107 159.264 34.9213 159.226 34.66C159.198 34.3987 159.133 34.1747 159.03 33.988C158.937 33.792 158.797 33.6427 158.61 33.54C158.433 33.428 158.19 33.372 157.882 33.372C157.658 33.372 157.439 33.4187 157.224 33.512C157.019 33.596 156.837 33.7267 156.678 33.904C156.52 34.0813 156.394 34.31 156.3 34.59C156.207 34.8607 156.16 35.1827 156.16 35.556V39H154.9V32.364ZM167.774 36.144C167.774 36.4333 167.835 36.6993 167.956 36.942C168.087 37.1753 168.255 37.376 168.46 37.544C168.665 37.712 168.903 37.8427 169.174 37.936C169.445 38.0293 169.725 38.076 170.014 38.076C170.406 38.076 170.747 37.9873 171.036 37.81C171.325 37.6233 171.591 37.3807 171.834 37.082L172.786 37.81C172.086 38.7153 171.106 39.168 169.846 39.168C169.323 39.168 168.847 39.0793 168.418 38.902C167.998 38.7247 167.639 38.482 167.34 38.174C167.051 37.8567 166.827 37.488 166.668 37.068C166.509 36.6387 166.43 36.1767 166.43 35.682C166.43 35.1873 166.514 34.73 166.682 34.31C166.859 33.8807 167.097 33.512 167.396 33.204C167.704 32.8867 168.068 32.6393 168.488 32.462C168.908 32.2847 169.365 32.196 169.86 32.196C170.448 32.196 170.943 32.2987 171.344 32.504C171.755 32.7093 172.091 32.98 172.352 33.316C172.613 33.6427 172.8 34.016 172.912 34.436C173.033 34.8467 173.094 35.2667 173.094 35.696V36.144H167.774ZM171.75 35.136C171.741 34.856 171.694 34.5993 171.61 34.366C171.535 34.1327 171.419 33.932 171.26 33.764C171.101 33.5867 170.901 33.4513 170.658 33.358C170.425 33.2553 170.149 33.204 169.832 33.204C169.524 33.204 169.239 33.2647 168.978 33.386C168.726 33.498 168.511 33.6473 168.334 33.834C168.157 34.0207 168.017 34.2307 167.914 34.464C167.821 34.688 167.774 34.912 167.774 35.136H171.75ZM174.601 32.364H175.861V33.386H175.889C176.048 33.0313 176.323 32.7467 176.715 32.532C177.107 32.308 177.56 32.196 178.073 32.196C178.391 32.196 178.694 32.2473 178.983 32.35C179.282 32.4433 179.539 32.5927 179.753 32.798C179.977 33.0033 180.155 33.2693 180.285 33.596C180.416 33.9133 180.481 34.2913 180.481 34.73V39H179.221V35.08C179.221 34.772 179.179 34.5107 179.095 34.296C179.011 34.072 178.899 33.8947 178.759 33.764C178.619 33.624 178.456 33.526 178.269 33.47C178.092 33.4047 177.905 33.372 177.709 33.372C177.448 33.372 177.205 33.414 176.981 33.498C176.757 33.582 176.561 33.7173 176.393 33.904C176.225 34.0813 176.095 34.31 176.001 34.59C175.908 34.87 175.861 35.2013 175.861 35.584V39H174.601V32.364ZM185.937 33.456H184.131V36.466C184.131 36.6527 184.135 36.8393 184.145 37.026C184.154 37.2033 184.187 37.3667 184.243 37.516C184.308 37.656 184.401 37.7727 184.523 37.866C184.653 37.95 184.84 37.992 185.083 37.992C185.232 37.992 185.386 37.978 185.545 37.95C185.703 37.922 185.848 37.8707 185.979 37.796V38.944C185.829 39.028 185.633 39.084 185.391 39.112C185.157 39.1493 184.975 39.168 184.845 39.168C184.359 39.168 183.981 39.1027 183.711 38.972C183.449 38.832 183.253 38.6547 183.123 38.44C183.001 38.2253 182.927 37.9873 182.899 37.726C182.88 37.4553 182.871 37.1847 182.871 36.914V33.456H181.415V32.364H182.871V30.502H184.131V32.364H185.937V33.456Z" fill="#D8D8D8"/>
</svg>
